Coordinates
version=1
nRows=6
nColumns=34
inDegrees=yes

Units are S.I. units (second, meters, Newtons, ...)
If the header above contains a line with 'inDegrees', this indicates whether rotational values are in degrees (yes) or radians (no).

endheader
time	pelvis_tilt	pelvis_list	pelvis_rotation	pelvis_tx	pelvis_ty	pelvis_tz	hip_flexion_r	hip_adduction_r	hip_rotation_r	knee_angle_r	ankle_angle_r	subtalar_angle_r	mtp_angle_r	hip_flexion_l	hip_adduction_l	hip_rotation_l	knee_angle_l	ankle_angle_l	subtalar_angle_l	mtp_angle_l	lumbar_extension	lumbar_bending	lumbar_rotation	arm_flex_r	arm_add_r	arm_rot_r	elbow_flex_r	pro_sup_r	arm_flex_l	arm_add_l	arm_rot_l	elbow_flex_l	pro_sup_l
     11.20000000	     -1.89782517	     -1.92992898	      0.41509585	      0.73930401	      1.15275409	     -0.10166433	     -2.21644061	     -3.85469469	    -21.61197259	      0.00000000	      0.01370761	    -11.42915672	      0.00000000	     -0.66830217	     -6.61317438	     -8.14902346	      0.86835540	      5.85238181	     -2.04496869	      0.00000000	     -0.68983630	      1.54867569	     -4.33297012	     57.88449882	      0.19301099	     27.48574241	     54.53821760	     60.43351000	     62.18870366	     -3.10045936	     36.38603919	     48.63870589	     19.52096547
     11.21666670	     -1.54520883	     -1.92868541	      0.29601036	      0.74498789	      1.15386369	     -0.10014521	     -2.80520174	     -3.84067639	    -21.96323746	      0.00000000	     -0.28851220	    -11.64974863	      0.00000000	     -1.23862244	     -6.66379491	     -8.16826744	      0.90993473	      6.02394906	     -2.18548919	      0.00000000	     -0.31032841	      1.41064288	     -4.62589727	     56.75043956	      0.43341282	     27.68879298	     54.44295304	     60.47801534	     61.46461491	     -3.48778971	     36.47081041	     48.58756447	     19.55217542
     11.23333330	     -1.41290377	     -1.84934805	      0.20811374	      0.74413796	      1.15354609	     -0.09929919	     -3.04827881	     -3.89976759	    -22.14752142	      0.00000000	     -0.58393866	    -11.92729826	      0.00000000	     -1.53696995	     -6.59630790	     -8.20158758	      0.85410772	      6.00272706	     -2.37240221	      0.00000000	      0.05142641	      1.34008794	     -4.97178237	     56.25426288	      0.75255944	     28.01032210	     54.98929106	     60.58957869	     61.04393183	     -4.03339598	     36.50640494	     48.59399314	     19.61420874
     11.25000000	     -1.25316227	     -1.82927132	      0.06804446	      0.74446041	      1.15168826	     -0.10005744	     -3.23341625	     -3.91212121	    -22.19238471	      0.00000000	     -0.51669109	    -12.07277253	      0.00000000	     -1.72677307	     -6.58352233	     -8.23560435	      0.93252811	      6.19431292	     -2.53243764	      0.00000000	      0.28319228	      1.30286974	     -5.10535980	     56.04715167	      0.60794352	     28.04577374	     55.11331589	     60.61703297	     60.78778384	     -4.34495499	     36.48615198	     48.53129700	     19.62769094
     11.26666670	     -1.15448481	     -1.73756397	     -0.02082945	      0.74866742	      1.15015436	     -0.10162942	     -3.40199662	     -4.01948549	    -22.11144091	      0.00000000	     -0.66042471	    -12.50428239	      0.00000000	     -1.94416024	     -6.45634761	     -8.11779912	      0.85397297	      6.23786912	     -2.82934129	      0.00000000	      0.56288012	      1.17108837	     -5.54988615	     55.76034788	      0.89084927	     28.41140949	     56.01766088	     60.77431125	     60.52154033	     -4.86473107	     36.44590838	     48.61566525	     19.72903577
     11.28333330	     -1.11254879	     -1.74153981	     -0.07454078	      0.74944926	      1.15062760	     -0.10233532	     -3.50324372	     -4.03707322	    -22.16268918	      0.00000000	     -0.65596840	    -12.54866566	      0.00000000	     -2.03837028	     -6.43544143	     -8.12570750	      0.91150863	      6.27176263	     -2.85712446	      0.00000000	      0.81735664	      1.18755473	     -5.53989199	     55.96551226	      0.85851229	     28.37394131	     56.07765857	     60.77844656	     60.57746094	     -4.84789302	     36.44154042	     48.65730551	     19.73608058
